<svg xmlns="http://www.w3.org/2000/svg" viewBox="0 0 74 75" width="74" height="75">
	<style>
		tspan { white-space:pre }
		.shp0 { fill: #808080 } 
		.shp1 { fill: #ffffff } 
	</style>
	<g id="home">
		<g id="home-page">
			<g id="logo-/-logo-white">
				<g id="Group-78">
					<path id="Fill-1" fill-rule="evenodd" class="shp0" d="M20.88 48.42C20.66 49.2 19.96 49.4 19.32 48.84L6.91 38.04C6.27 37.49 6.41 36.79 7.23 36.48L24.64 30C25.45 29.69 25.93 30.09 25.72 30.88L20.88 48.42Z" />
					<path id="Fill-3" fill-rule="evenodd" class="shp0" d="M11.3 58.5C10.66 59.03 10.01 58.81 9.85 58L6.54 40.29C6.39 39.49 6.78 39.28 7.4 39.84L18.89 50.21C19.52 50.77 19.5 51.67 18.85 52.21L11.3 58.5Z" />
					<path id="Fill-5" fill-rule="evenodd" class="shp0" d="M25.44 25.87C26.01 26.53 25.81 27.34 25 27.66L7.54 34.6C6.72 34.92 6.31 34.52 6.61 33.7L13.78 14.55C14.09 13.73 14.81 13.6 15.38 14.27L25.44 25.87Z" />
					<path id="Fill-7" fill-rule="evenodd" class="shp0" d="M8.07 56.48C8.23 57.32 7.96 57.42 7.46 56.7L0.44 46.49C-0.06 45.77 -0.02 44.62 0.53 43.93L3.67 39.97C4.21 39.28 4.79 39.41 4.96 40.26L8.07 56.48Z" />
					<path id="Fill-9" fill-rule="evenodd" class="shp0" d="M5.12 32.5C4.82 33.31 4.35 33.3 4.08 32.48L1.8 25.67C1.52 24.85 1.83 23.7 2.47 23.12L10.59 15.78C11.23 15.2 11.51 15.39 11.2 16.2L5.12 32.5Z" />
					<path id="Fill-11" fill-rule="evenodd" class="shp0" d="M3.2 33.73C3.43 34.48 3.26 35.62 2.81 36.26L0.78 39.12C0.33 39.76 0.03 39.63 0.1 38.84L1.08 28.9C1.15 28.11 1.41 28.08 1.65 28.84L3.2 33.73Z" />
					<path id="Fill-13" fill-rule="evenodd" class="shp0" d="M12.82 10.75C13.1 11.05 12.82 11.7 12.2 12.21L8.66 15.11C8.03 15.62 7.93 15.54 8.44 14.93L11.4 11.33C11.9 10.72 12.54 10.46 12.82 10.75Z" />
					<path id="Fill-15" fill-rule="evenodd" class="shp0" d="M33.92 67.85C33.49 68.59 32.74 68.62 32.25 67.91L22.79 54.17C22.3 53.47 22.61 52.82 23.46 52.73L42.47 50.77C43.32 50.69 43.66 51.22 43.23 51.96L33.92 67.85Z" />
					<path id="Fill-17" fill-rule="evenodd" class="shp0" d="M30.34 67.55C30.82 68.25 30.56 68.6 29.75 68.33L12.03 62.34C11.22 62.06 11.09 61.39 11.74 60.83L19.33 54.32C19.98 53.77 20.9 53.89 21.39 54.59L30.34 67.55Z" />
					<path id="Fill-19" fill-rule="evenodd" class="shp0" d="M43.12 47.42C43.67 48.07 43.44 48.68 42.6 48.76L23.74 50.75C22.91 50.84 22.4 50.23 22.61 49.4L27.32 30.63C27.53 29.8 28.15 29.65 28.7 30.3L43.12 47.42Z" />
					<path id="Fill-21" fill-rule="evenodd" class="shp0" d="M57.56 62.7C58.11 63.36 57.88 64.04 57.06 64.22L37.91 68.38C37.09 68.56 36.76 68.1 37.19 67.35L46.22 51.38C46.64 50.63 47.44 50.55 47.98 51.21L57.56 62.7Z" />
					<path id="Fill-23" fill-rule="evenodd" class="shp0" d="M25.96 72.99C25.24 73.42 24.15 73.28 23.54 72.68L14.92 64.28C14.31 63.69 14.44 63.44 15.21 63.73L29.97 69.26C30.74 69.55 30.79 70.13 30.07 70.56L25.96 72.99Z" />
					<path id="Fill-25" fill-rule="evenodd" class="shp0" d="M47.76 74.34C47.12 74.88 45.99 75 45.25 74.62L39.12 71.41C38.38 71.03 38.44 70.57 39.25 70.39L55.54 66.87C56.35 66.69 56.49 66.99 55.85 67.53L47.76 74.34Z" />
					<path id="Fill-27" fill-rule="evenodd" class="shp0" d="M29.72 74.38C28.81 74.34 28.73 74 29.52 73.62L33.11 71.92C33.9 71.55 35.22 71.53 36.02 71.9L41.26 74.25C42.06 74.61 41.98 74.88 41.08 74.84L29.72 74.38Z" />
					<path id="Fill-29" fill-rule="evenodd" class="shp0" d="M60.97 65.41C61.27 65.79 60.86 66.49 60.06 66.96L55.31 69.74C54.51 70.21 54.43 70.08 55.13 69.45L59.14 65.85C59.84 65.22 60.67 65.02 60.97 65.41Z" />
					<path id="Fill-31" fill-rule="evenodd" class="shp0" d="M49.36 45.85C48.55 46.15 48.07 45.75 48.28 44.96L53.12 27.43C53.34 26.64 54.04 26.45 54.68 27L67.09 37.8C67.73 38.35 67.59 39.06 66.77 39.36L49.36 45.85Z" />
					<path id="Fill-33" fill-rule="evenodd" class="shp0" d="M67.46 35.55C67.61 36.36 67.22 36.56 66.6 36L55.11 25.63C54.48 25.07 54.5 24.17 55.15 23.63L62.7 17.35C63.34 16.81 63.99 17.03 64.14 17.84L67.46 35.55Z" />
					<path id="Fill-35" fill-rule="evenodd" class="shp0" d="M60.22 61.29C59.91 62.11 59.19 62.24 58.62 61.58L48.56 49.97C47.99 49.31 48.19 48.5 49 48.18L66.46 41.24C67.28 40.92 67.69 41.32 67.39 42.14L60.22 61.29Z" />
					<path id="Fill-37" fill-rule="evenodd" class="shp0" d="M73.56 29.35C74.06 30.07 74.02 31.23 73.47 31.92L70.33 35.87C69.79 36.56 69.21 36.43 69.04 35.59L65.93 19.37C65.77 18.52 66.04 18.42 66.54 19.14L73.56 29.35Z" />
					<path id="Fill-39" fill-rule="evenodd" class="shp0" d="M72.2 50.17C72.48 50.99 72.17 52.14 71.53 52.72L63.41 60.06C62.77 60.64 62.49 60.45 62.8 59.64L68.88 43.34C69.18 42.53 69.65 42.54 69.92 43.36L72.2 50.17Z" />
					<path id="Fill-41" fill-rule="evenodd" class="shp0" d="M72.92 46.94C72.85 47.73 72.59 47.76 72.35 47.01L70.8 42.11C70.57 41.36 70.74 40.22 71.19 39.58L73.22 36.72C73.67 36.09 73.97 36.21 73.9 37L72.92 46.94Z" />
					<path id="Fill-43" fill-rule="evenodd" class="shp0" d="M62.6 64.51C62.1 65.12 61.46 65.38 61.18 65.09C60.9 64.8 61.18 64.14 61.8 63.63L65.34 60.73C65.97 60.22 66.07 60.3 65.56 60.91L62.6 64.51Z" />
					<path id="Fill-45" fill-rule="evenodd" class="shp0" d="M49.6 21.67C50.09 22.37 49.79 23.02 48.94 23.11L29.93 25.07C29.08 25.16 28.73 24.62 29.16 23.88L38.47 7.99C38.91 7.25 39.66 7.23 40.15 7.93L49.6 21.67Z" />
					<path id="Fill-47" fill-rule="evenodd" class="shp0" d="M54.67 21.52C54.02 22.07 53.1 21.95 52.61 21.25L43.66 8.29C43.18 7.59 43.44 7.24 44.25 7.51L61.97 13.51C62.78 13.78 62.91 14.46 62.26 15.01L54.67 21.52Z" />
					<path id="Fill-49" fill-rule="evenodd" class="shp0" d="M46.68 45.21C46.47 46.04 45.85 46.19 45.3 45.54L30.88 28.42C30.33 27.77 30.56 27.17 31.4 27.08L50.26 25.09C51.09 25 51.6 25.61 51.4 26.44L46.68 45.21Z" />
					<path id="Fill-51" fill-rule="evenodd" class="shp0" d="M27.78 24.47C27.36 25.21 26.56 25.29 26.01 24.63L16.44 13.14C15.89 12.49 16.12 11.8 16.94 11.63L36.09 7.46C36.91 7.28 37.24 7.75 36.81 8.5L27.78 24.47Z" />
					<path id="Fill-53" fill-rule="evenodd" class="shp0" d="M44.03 6.58C43.26 6.29 43.21 5.71 43.93 5.29L48.04 2.85C48.76 2.43 49.85 2.57 50.46 3.16L59.08 11.56C59.69 12.16 59.56 12.41 58.79 12.12L44.03 6.58Z" />
					<path id="Fill-55" fill-rule="evenodd" class="shp0" d="M18.45 8.98C17.65 9.15 17.51 8.85 18.15 8.31L26.24 1.5C26.88 0.96 28.01 0.84 28.75 1.22L34.88 4.43C35.62 4.81 35.56 5.27 34.75 5.45L18.45 8.98Z" />
					<path id="Fill-57" fill-rule="evenodd" class="shp0" d="M40.89 3.92C40.1 4.3 38.78 4.31 37.98 3.95L32.74 1.6C31.94 1.23 32.02 0.97 32.92 1L44.28 1.47C45.19 1.5 45.28 1.84 44.48 2.22L40.89 3.92Z" />
					<path id="Fill-59" fill-rule="evenodd" class="shp0" d="M14.86 9.99C14.16 10.62 13.33 10.82 13.03 10.44C12.73 10.05 13.14 9.35 13.94 8.88L18.69 6.1C19.49 5.63 19.57 5.76 18.87 6.39L14.86 9.99Z" />
					<path id="Fill-61" fill-rule="evenodd" class="shp0" d="M9.84 62.11C10.13 61.83 10.79 62.11 11.3 62.73L14.2 66.28C14.71 66.9 14.63 67 14.02 66.5L10.42 63.53C9.81 63.03 9.55 62.39 9.84 62.11Z" />
					<path id="Fill-63" fill-rule="evenodd" class="shp0" d="M64.48 13.94C64.86 13.64 65.56 14.05 66.03 14.85L68.81 19.6C69.28 20.41 69.15 20.49 68.52 19.78L64.92 15.77C64.29 15.07 64.09 14.25 64.48 13.94Z" />
					<path id="Fill-65" fill-rule="evenodd" class="shp0" d="M63.58 12.31C64.19 12.81 64.45 13.45 64.16 13.73C63.86 14.01 63.21 13.73 62.7 13.11L59.8 9.57C59.29 8.94 59.37 8.84 59.98 9.35L63.58 12.31Z" />
					<path id="Fill-67" fill-rule="evenodd" class="shp0" d="M7.47 59.07C8.1 59.77 8.31 60.6 7.92 60.9C7.54 61.2 6.83 60.79 6.36 59.99L3.58 55.24C3.11 54.44 3.25 54.35 3.88 55.06L7.47 59.07Z" />
				</g>
			</g>
		</g>
		<path id="Fill-49 copy" fill-rule="evenodd" class="shp1" d="M29.25 59.68C28.01 60.57 27 60.06 27 58.54L27.1 18.62C27.1 17.1 28.11 16.55 29.35 17.4L57.31 36.41C58.55 37.24 58.55 38.66 57.3 39.56L29.25 59.68Z" />
	</g>
</svg>